<?xml version="1.0" standalone="no"?>
<!DOCTYPE svg PUBLIC "-//W3C//DTD SVG 20010904//EN"
 "http://www.w3.org/TR/2001/REC-SVG-20010904/DTD/svg10.dtd">
<svg version="1.0" xmlns="http://www.w3.org/2000/svg"
 width="177.000000pt" height="177.000000pt" viewBox="0 0 177.000000 177.000000"
 preserveAspectRatio="xMidYMid meet">
<metadata>
Created by potrace 1.15, written by Peter Selinger 2001-2017
</metadata>
<g transform="translate(0.000000,177.000000) scale(0.100000,-0.100000)"
fill="#000000" stroke="none">
<path d="M720 1735 c-344 -74 -599 -318 -682 -652 -29 -119 -29 -295 0 -405
88 -328 311 -553 634 -640 124 -33 319 -31 439 5 120 36 187 67 274 128 313
216 445 618 324 985 -91 274 -302 475 -586 560 -109 32 -300 42 -403 19z m295
-734 c28 -6 88 -10 134 -10 46 -1 82 -3 79 -6 -3 -3 -68 -6 -144 -7 l-139 -1
80 -13 c59 -10 105 -11 174 -4 52 5 98 7 102 5 12 -8 72 -15 154 -19 64 -3 81
-7 83 -20 6 -30 -57 -46 -182 -46 -66 0 -117 4 -121 10 -8 13 -56 13 -91 0
-87 -34 -179 -50 -278 -50 -73 0 -107 -4 -114 -13 -17 -20 214 -22 276 -2 163
52 169 53 193 41 15 -7 25 -22 27 -38 6 -51 -119 -118 -243 -132 -36 -4 -82
-18 -116 -35 -71 -37 -146 -51 -268 -51 -95 0 -96 1 -136 35 -55 49 -88 52
-239 27 -71 -12 -131 -20 -133 -18 -12 12 -33 155 -33 227 l0 87 98 11 c159
17 202 19 246 9 45 -10 365 6 426 22 37 9 81 7 165 -9z"/>
</g>
</svg>
