<?xml version="1.0" standalone="no"?>
<!DOCTYPE svg PUBLIC "-//W3C//DTD SVG 20010904//EN"
 "http://www.w3.org/TR/2001/REC-SVG-20010904/DTD/svg10.dtd">
<svg version="1.0" xmlns="http://www.w3.org/2000/svg"
 width="177.000000pt" height="177.000000pt" viewBox="0 0 177.000000 177.000000"
 preserveAspectRatio="xMidYMid meet">
<metadata>
Created by potrace 1.15, written by Peter Selinger 2001-2017
</metadata>
<g transform="translate(0.000000,177.000000) scale(0.100000,-0.100000)"
fill="#000000" stroke="none">
<path d="M765 1744 c-11 -2 -50 -11 -87 -20 -247 -56 -452 -219 -568 -449
-168 -333 -116 -714 134 -982 319 -342 835 -375 1202 -76 118 96 235 281 279
438 10 37 19 115 22 200 4 126 2 149 -20 237 -80 307 -299 534 -604 624 -69
20 -116 27 -213 29 -69 2 -134 2 -145 -1z m489 -646 c9 -12 16 -31 16 -41 0
-10 9 -30 20 -44 11 -14 20 -35 20 -47 0 -11 9 -75 20 -140 23 -138 20 -146
-49 -146 -110 0 -135 14 -110 61 8 15 14 18 23 10 10 -8 17 -7 27 6 11 13 11
17 2 20 -7 3 -13 11 -13 19 0 9 -4 13 -9 9 -6 -3 -14 2 -19 11 -7 12 -13 4
-30 -37 -24 -56 -28 -94 -12 -104 11 -7 22 -9 92 -19 56 -8 61 -14 48 -53 -10
-26 -20 -32 -108 -57 -53 -16 -104 -30 -112 -32 -9 -2 -31 4 -50 15 -19 10
-87 47 -150 81 -200 110 -179 102 -303 103 -107 1 -119 -1 -259 -46 -81 -26
-153 -50 -161 -53 -23 -8 -50 105 -55 232 l-4 111 61 6 c33 4 116 18 183 33
68 14 150 26 182 25 33 0 69 5 80 11 11 6 42 10 69 9 36 -1 384 63 394 72 1 1
44 3 96 5 89 3 96 2 111 -20z"/>
</g>
</svg>
