<?xml version="1.0" standalone="no"?>
<!DOCTYPE svg PUBLIC "-//W3C//DTD SVG 20010904//EN"
 "http://www.w3.org/TR/2001/REC-SVG-20010904/DTD/svg10.dtd">
<svg version="1.0" xmlns="http://www.w3.org/2000/svg"
 width="177.000000pt" height="177.000000pt" viewBox="0 0 177.000000 177.000000"
 preserveAspectRatio="xMidYMid meet">
<metadata>
Created by potrace 1.15, written by Peter Selinger 2001-2017
</metadata>
<g transform="translate(0.000000,177.000000) scale(0.100000,-0.100000)"
fill="#000000" stroke="none">
<path d="M721 1735 c-222 -49 -395 -156 -526 -325 -133 -173 -196 -396 -174
-615 22 -211 106 -385 259 -535 184 -180 449 -271 700 -242 378 44 665 301
756 677 25 101 23 295 -4 397 -91 339 -360 586 -706 647 -81 15 -227 12 -305
-4z m794 -665 c12 -19 -5 -47 -43 -67 -20 -11 -104 -35 -187 -52 -219 -46
-217 -45 -213 -56 2 -5 8 -9 13 -8 6 2 57 -21 115 -50 58 -29 136 -62 173 -73
57 -16 67 -22 65 -39 -2 -16 -12 -21 -48 -23 -48 -4 -218 34 -331 74 -67 23
-109 23 -109 -1 0 -6 7 -34 15 -61 30 -100 11 -116 -61 -49 l-49 45 43 -14
c41 -15 55 -9 29 12 -6 6 -24 13 -40 17 -15 4 -27 11 -27 16 0 4 11 38 24 74
13 36 21 65 17 65 -3 0 -19 -23 -35 -50 -20 -34 -33 -46 -38 -37 -14 22 -9
-53 6 -81 8 -15 30 -42 50 -60 28 -25 36 -40 36 -67 0 -73 -69 -99 -117 -44
-37 41 -61 52 -163 78 -47 12 -112 34 -145 50 -65 31 -222 75 -270 75 -16 0
-53 -4 -82 -8 l-51 -8 -7 68 c-8 68 0 222 11 233 3 3 69 4 147 2 270 -8 532
-4 599 7 46 9 74 9 93 2 74 -28 483 -5 545 31 20 11 28 11 35 -1z"/>
</g>
</svg>
